<?xml version="1.0" encoding="UTF-8" standalone="no"?>
<!-- Created with Inkscape (http://www.inkscape.org/) -->
<svg
   xmlns:dc="http://purl.org/dc/elements/1.1/"
   xmlns:cc="http://creativecommons.org/ns#"
   xmlns:rdf="http://www.w3.org/1999/02/22-rdf-syntax-ns#"
   xmlns:svg="http://www.w3.org/2000/svg"
   xmlns="http://www.w3.org/2000/svg"
   xmlns:sodipodi="http://sodipodi.sourceforge.net/DTD/sodipodi-0.dtd"
   xmlns:inkscape="http://www.inkscape.org/namespaces/inkscape"
   id="svg2"
   sodipodi:version="0.32"
   inkscape:version="0.46"
   width="368.48999"
   height="304"
   sodipodi:docname="CamelCase.svg"
   inkscape:output_extension="org.inkscape.output.svg.inkscape"
   version="1.0">
  <metadata
     id="metadata7">
    <rdf:RDF>
      <cc:Work
         rdf:about="">
        <dc:format>image/svg+xml</dc:format>
        <dc:type
           rdf:resource="http://purl.org/dc/dcmitype/StillImage" />
      </cc:Work>
    </rdf:RDF>
  </metadata>
  <defs
     id="defs5">
    <inkscape:perspective
       sodipodi:type="inkscape:persp3d"
       inkscape:vp_x="0 : 526.18109 : 1"
       inkscape:vp_y="0 : 1000 : 0"
       inkscape:vp_z="744.09448 : 526.18109 : 1"
       inkscape:persp3d-origin="372.04724 : 350.78739 : 1"
       id="perspective9" />
    <inkscape:perspective
       id="perspective2389"
       inkscape:persp3d-origin="372.04724 : 350.78739 : 1"
       inkscape:vp_z="744.09448 : 526.18109 : 1"
       inkscape:vp_y="0 : 1000 : 0"
       inkscape:vp_x="0 : 526.18109 : 1"
       sodipodi:type="inkscape:persp3d" />
  </defs>
  <sodipodi:namedview
     inkscape:window-height="751"
     inkscape:window-width="1251"
     inkscape:pageshadow="2"
     inkscape:pageopacity="0.0"
     guidetolerance="10.0"
     gridtolerance="10.0"
     objecttolerance="10.0"
     borderopacity="1.0"
     bordercolor="#666666"
     pagecolor="#ffffff"
     id="base"
     showgrid="false"
     inkscape:zoom="0.26385019"
     inkscape:cx="936.01769"
     inkscape:cy="612.46712"
     inkscape:window-x="-4"
     inkscape:window-y="-4"
     inkscape:current-layer="svg2"
     showguides="true"
     inkscape:guide-bbox="true">
    <sodipodi:guide
       orientation="-0.70710678,0.70710678"
       position="1190.0692,-121.28094"
       id="guide3212" />
  </sodipodi:namedview>
  <g
     id="g3214"
     transform="matrix(0.2047849,0,0,0.2047849,125.22018,19.647619)">
    <path
       sodipodi:nodetypes="cccccccccccc"
       id="path2399"
       d="M -452.55406,904.10982 C -453.13697,904.72037 -456.35991,914.11037 -470.0205,943.49371 C -470.58648,960.37908 -480.06403,1022.0499 -480.90691,1061.0117 C -475.828,1146.1127 -459.86961,1232.9645 -437.24122,1254.6686 C -418.49515,1262.2898 -395.61478,1272.0614 -379.16082,1270.7949 C -361.41052,1269.4287 -354.67584,1304.0083 -358.08847,1304.0083 C -391.37791,1310.9282 -484.80635,1329.5226 -508.04076,1284.7173 C -516.70898,1182.4139 -524.29771,1136.9859 -549.17515,1092.9715 C -562.12345,1026.9272 -573.49078,995.18355 -589.30423,948.75565 C -579.85391,899.34734 -556.06346,908.596 -540.4203,827.99054 C -524.85044,756.89711 -503.43842,552.65091 -498.21716,526.70116 C -473.96608,526.70116 -452.55406,876.26599 -452.55406,904.10982 z"
       style="fill:#803300;fill-opacity:1;fill-rule:evenodd;stroke:#2b1100;stroke-width:4;stroke-linecap:round;stroke-linejoin:miter;stroke-miterlimit:4;stroke-dasharray:none;stroke-dashoffset:0;stroke-opacity:1" />
    <path
       sodipodi:nodetypes="cccccccccc"
       id="path3172"
       d="M 499.91945,766.36363 C 494.14659,792.92394 440.75412,900.92301 427.09353,930.30632 C 426.52755,947.19172 406.6701,1052.1121 388.52738,1084.154 C 393.60629,1169.255 387.07489,1230.157 416.62321,1262.241 C 435.36928,1269.8622 461.70962,1276.1739 478.16358,1274.9074 C 495.91388,1273.5412 504.37854,1308.1208 464.63626,1311.5807 C 415.77696,1318.5006 353.48823,1330.1751 321.6039,1306.1296 C 312.93568,1203.8262 343.40659,1108.2287 318.52915,1064.2143 C 252.40646,861.41947 379.62106,776.92644 485.39606,643.26259 C 509.64714,643.26259 505.1094,724.67993 499.91945,766.36363 z"
       style="opacity:1;fill:#803300;fill-opacity:1;fill-rule:evenodd;stroke:#2b1100;stroke-width:4;stroke-linecap:round;stroke-linejoin:miter;stroke-miterlimit:4;stroke-dasharray:none;stroke-dashoffset:0;stroke-opacity:1" />
    <path
       sodipodi:nodetypes="cccccccsccsccccccccccccsccccsccccccccccccsccccccccccccccccccc"
       id="path2395"
       d="M 149.99405,133.22993 C 179.17222,112.9162 211.35774,95.246565 240.96997,62.477777 C 294.81398,-38.811683 332.87791,-73.449118 372.42687,-54.66818 C 423.2806,-52.700258 448.20161,37.924854 477.09101,160.23801 C 568.73081,218.44382 591.50109,337.64584 685.03035,374.45089 C 701.08245,374.38752 713.67604,281.88653 741.56776,218.31238 C 760.61387,189.49075 796.62626,157.40978 805.40948,158.06553 C 819.17477,160.23689 845.17866,155.05729 865.76276,123.83961 C 898.75273,73.807304 984.58696,59.529123 998.70133,120.72601 C 1016.7221,193.08656 1192.6482,129.09178 1174.902,259.12439 C 1168.8708,281.86281 1107.5122,261.53409 1109.7072,295.3476 C 1110.455,306.86661 1177.311,305.04746 1173.3883,320.75485 C 1167.7054,343.51023 1147.5851,361.99039 1125.1448,363.51525 C 1085.3145,366.22179 1038.175,344.95284 1051.4838,409.2975 C 1045.3265,485.82984 1081.1624,508.99409 1067.335,576.6285 C 1057.6132,639.02698 1004.9382,681.05081 973.16698,711.22294 C 924.02743,792.08876 693.0639,866.57061 600.18652,800.79981 C 585.73124,788.62559 554.59676,754.84961 564.51484,697.67579 C 541.86607,667.74088 521.29872,662.33652 514.3715,668.50069 C 500.28091,669.48866 444.04237,713.86944 438.78983,730.62876 C 418.77047,794.50465 394.95518,870.02977 328.51097,949.62935 C 312.6136,973.39913 307.84627,995.4616 295.07773,1040.8919 C 290.45669,1057.3336 271.5776,1065.5033 264.05907,1089.7981 C 247.10501,1144.582 232.87688,1165.4405 241.73242,1212.7526 C 253.84288,1277.4546 260.01101,1328.3242 286.42513,1332.1526 C 338.92232,1329.8102 349.80846,1379.0233 290.98366,1376.6953 C 270.0944,1377.5286 211.11672,1367.8945 183.47525,1368.3828 C 183.36618,1359.4823 180.09756,1316.2039 170.03943,1272.7238 C 182.51536,1231.1719 186.75825,1177.9889 192.84193,1135.3929 C 199.34429,1089.8654 174.93247,1040.3789 181.41623,998.13699 C 189.57584,954.74316 202.23613,914.33189 210.32458,878.87426 C 193.16799,867.25708 178.30246,799.40338 211.39406,752.35854 C 168.16054,764.26301 -118.37864,890.15532 -285.95563,608.8877 C -298.4697,624.16124 -280.33291,668.77304 -298.62821,715.21086 C -303.23604,741.52474 -314.29819,748.77996 -315.23437,759.08661 C -314.35827,780.8424 -329.94438,801.29383 -341.84786,810.79723 C -338.39734,834.16049 -335.85874,844.21611 -337.1335,872.01809 C -338.41646,899.99906 -351.553,943.32116 -347.20918,972.58416 C -341.10354,998.31448 -337.52758,1030.4674 -336.37028,1058.7577 C -323.36997,1131.1596 -297.53121,1195.5266 -269.75855,1242.4046 C -256.55445,1245.6729 -243.94186,1279.3271 -231.14706,1290.3083 C -216.41412,1302.953 -201.83748,1305.8087 -185.37406,1306.4332 C -171.40737,1306.9631 -175.4788,1321.8596 -175.43399,1329.6067 C -177.69043,1350.9747 -264.20908,1355.8728 -318.17079,1337.8007 C -344.5209,1299.4091 -317.85679,1251.3103 -363.58471,1177.734 C -360.14853,1174.9922 -381.70481,1136.9235 -404.66681,1094.1795 C -412.10375,1091.6286 -425.85794,1077.1186 -432.78998,1052.0425 C -446.21104,1037.4574 -458.0424,1022.3542 -458.62751,1018.0229 C -471.8966,980.5532 -444.13426,941.10823 -454.37044,907.74361 C -476.96494,808.29596 -503.98735,702.78091 -518.72224,575.81673 C -528.28133,529.3648 -529.44289,485.77079 -535.81665,441.81744 C -532.66768,400.66485 -518.31434,388.53311 -511.00236,350.03586 C -513.78217,366.6927 -530.89155,401.87763 -544.91521,447.95607 C -543.87099,520.68792 -558.16682,568.46437 -555.69524,656.23235 C -573.52831,764.83137 -588.71109,749.46731 -595.68849,720.17024 C -605.11759,536.90076 -598.15829,428.54886 -572.56695,367.83517 C -538.7972,292.83416 -506.96841,289.51957 -491.37024,277.12677 C -411.50087,202.66977 -397.7124,224.38985 -348.23914,185.50141 C -274.40646,77.415149 -185.27729,-96.383882 -130.42313,-83.498472 C -85.101719,-87.557707 -23.379542,35.218197 26.068154,109.616 C 70.30675,161.62126 124.7167,136.30696 149.99405,133.22993 z"
       style="opacity:1;fill:#a05a2c;fill-opacity:1;fill-rule:evenodd;stroke:#552200;stroke-width:4;stroke-linecap:round;stroke-linejoin:miter;stroke-miterlimit:4;stroke-dasharray:none;stroke-dashoffset:0;stroke-opacity:1" />
    <path
       id="text3151"
       d="M -83.410871,119.11759 C -84.78383,135.24805 -90.53243,147.86065 -100.65669,156.95542 C -110.78123,166.22185 -124.25183,170.85505 -141.06853,170.85504 C -161.31743,170.85505 -177.27623,163.47625 -188.94497,148.71862 C -200.61382,133.61785 -206.44822,112.59685 -206.44819,85.655556 C -206.44822,58.886052 -200.69962,38.208253 -189.20237,23.622097 C -177.70523,9.3794549 -161.74643,2.2580552 -141.32593,2.2578766 C -125.53883,2.2580552 -112.66883,6.204855 -102.71589,14.098288 C -92.76323,21.992054 -86.92883,32.888654 -85.212673,46.788119 L -67.966857,46.788119 C -69.168231,28.598654 -76.289631,14.012655 -89.331077,3.0300773 C -102.54443,-7.9521443 -119.87603,-13.443344 -141.32593,-13.443538 C -166.89443,-13.443344 -187.05743,-4.7775444 -201.81498,12.553886 C -216.91582,30.228854 -224.46622,54.681853 -224.46621,85.912956 C -224.46622,117.31585 -217.00162,141.94045 -202.07238,159.78683 C -187.48643,177.63325 -167.40923,186.55645 -141.84073,186.55645 C -119.53283,186.55645 -101.77223,180.55045 -88.558876,168.53843 C -75.345831,156.52645 -67.967031,140.05285 -66.422455,119.11759 L -83.410871,119.11759 z"
       style="font-size:263.57785034px;font-style:normal;font-variant:normal;font-weight:normal;font-stretch:normal;text-align:start;line-height:125%;writing-mode:lr-tb;text-anchor:start;fill:#000000;fill-opacity:1;stroke:#000000;stroke-width:10;stroke-linecap:butt;stroke-linejoin:miter;stroke-miterlimit:4;stroke-opacity:1;font-family:Dotum;-inkscape-font-specification:Dotum" />
    <path
       id="text3155"
       d="M -4.9363098,184.30589 L -4.9363098,185.43089 C -4.9363708,188.8059 -4.0457467,191.38402 -2.2644348,193.16527 C -0.4832503,194.94652 2.188622,195.83714 5.7511902,195.83714 C 6.5011177,195.83714 7.2979919,195.79027 8.1418152,195.69652 C 9.3604899,195.50902 10.626114,195.32152 11.93869,195.13402 L 11.93869,188.66527 L 8.8449402,188.66527 C 6.4073678,188.66527 4.8136194,188.10277 4.0636902,186.97777 C 3.5948706,186.22778 3.3604959,184.54028 3.3605652,181.91527 L 3.3605652,141.13402 C 3.3604959,133.63408 1.0167482,127.96221 -3.6706848,124.11839 C -8.2644925,120.36847 -15.014486,118.49347 -23.920685,118.49339 C -33.014468,118.49347 -40.233211,120.69659 -45.576935,125.10277 C -50.82695,129.41533 -53.498822,135.2747 -53.59256,142.68089 L -45.014435,142.68089 C -44.826956,137.1497 -42.951958,132.97783 -39.389435,130.16527 C -35.826965,127.44659 -30.67072,126.08721 -23.920685,126.08714 C -17.264484,126.08721 -12.483238,127.39971 -9.5769348,130.02464 C -6.764494,132.46221 -5.3582454,136.5872 -5.3581848,142.39964 C -5.3582454,145.86844 -6.6238692,148.30594 -9.1550598,149.71214 C -11.030115,150.83719 -14.123862,151.58719 -18.43631,151.96214 L -22.37381,152.24339 C -27.811348,152.61844 -31.842594,153.04031 -34.46756,153.50902 C -38.686337,154.16531 -42.295708,155.24343 -45.295685,156.74339 C -49.326951,158.43093 -52.326948,160.86843 -54.295685,164.05589 C -56.358194,167.24342 -57.389443,171.04029 -57.389435,175.44652 C -57.389443,181.91528 -55.186321,187.1184 -50.78006,191.05589 C -46.28008,195.08714 -40.233211,197.10277 -32.639435,197.10277 C -27.389473,197.10277 -22.467603,196.02464 -17.87381,193.86839 C -13.280113,191.71215 -8.9676168,188.52465 -4.9363098,184.30589 L -4.9363098,184.30589 z M -5.3581848,155.75902 L -5.3581848,166.30589 C -5.3582454,173.33716 -7.795743,178.96216 -12.670685,183.18089 C -17.451983,187.3059 -23.733227,189.3684 -31.514435,189.36839 C -36.764464,189.3684 -40.936335,188.0559 -44.03006,185.43089 C -47.030079,182.8059 -48.530077,179.38403 -48.53006,175.16527 C -48.530077,171.13404 -47.123829,167.80592 -44.31131,165.18089 C -41.217585,162.27468 -36.858214,160.49343 -31.233185,159.83714 L -22.514435,158.71214 C -18.108233,158.33718 -14.967611,157.96218 -13.09256,157.58714 C -9.9988658,157.11843 -7.4207434,156.50906 -5.3581848,155.75902 L -5.3581848,155.75902 z"
       style="font-size:144px;font-style:normal;font-variant:normal;font-weight:normal;font-stretch:normal;text-align:start;line-height:125%;writing-mode:lr-tb;text-anchor:start;fill:#000000;fill-opacity:1;stroke:none;stroke-width:1px;stroke-linecap:butt;stroke-linejoin:miter;stroke-opacity:1;font-family:Dotum;-inkscape-font-specification:Dotum" />
    <path
       id="text3159"
       d="M 25.617111,226.0481 L 34.195236,226.0481 L 34.195236,179.78247 C 34.195216,172.93877 36.210839,167.4544 40.242111,163.32935 C 44.367081,159.11066 49.898325,157.00129 56.835861,157.00122 C 61.242064,157.00129 64.663935,158.54816 67.101486,161.64185 C 69.538931,164.73566 70.757679,169.37628 70.757736,175.56372 L 70.757736,226.0481 L 79.335861,226.0481 L 79.335861,179.21997 C 79.335796,172.56377 81.304544,167.22003 85.242111,163.18872 C 89.367036,159.06379 94.89828,157.00129 101.83586,157.00122 C 106.71077,157.00129 110.27326,158.40754 112.52336,161.21997 C 114.77326,164.03253 115.89826,168.53253 115.89836,174.71997 L 115.89836,226.0481 L 124.47649,226.0481 L 124.47649,173.87622 C 124.47638,165.72003 122.5545,159.57941 118.71086,155.45435 C 114.86701,151.42317 109.33577,149.40755 102.11711,149.40747 C 96.492029,149.40755 91.617034,150.6263 87.492111,153.06372 C 83.367042,155.50129 80.03892,159.15754 77.507736,164.03247 C 76.195174,159.34504 73.804551,155.73567 70.335861,153.20435 C 66.867058,150.67317 62.742062,149.40755 57.960861,149.40747 C 52.523323,149.40755 47.742077,150.6263 43.617111,153.06372 C 39.492086,155.40754 36.163964,158.92316 33.632736,163.6106 L 33.632736,151.2356 L 25.617111,151.2356 L 25.617111,226.0481 z"
       style="font-size:144px;font-style:normal;font-variant:normal;font-weight:normal;font-stretch:normal;text-align:start;line-height:125%;writing-mode:lr-tb;text-anchor:start;fill:#000000;fill-opacity:1;stroke:none;stroke-width:1px;stroke-linecap:butt;stroke-linejoin:miter;stroke-opacity:1;font-family:Dotum;-inkscape-font-specification:Dotum" />
    <path
       id="text3163"
       d="M 147.8362,175.91447 C 147.74243,168.22702 150.08618,161.75828 154.86745,156.50822 C 159.08617,151.91454 164.47679,149.61767 171.03932,149.6176 C 177.50802,149.61767 182.75802,151.91454 186.78932,156.50822 C 191.28926,161.75828 193.53926,168.22702 193.53932,175.91447 L 147.8362,175.91447 z M 147.8362,182.8051 L 202.53932,182.8051 L 202.53932,179.9926 C 202.53925,167.99265 199.72675,158.61766 194.10182,151.8676 C 188.47676,145.30517 180.88302,142.02393 171.32057,142.02385 C 161.19554,142.02393 153.27367,145.4458 147.55495,152.28947 C 141.74244,159.32078 138.83619,169.11765 138.8362,181.6801 C 138.83619,193.96137 141.69556,203.57074 147.41432,210.50822 C 153.13305,217.35198 160.96117,220.77385 170.8987,220.77385 C 179.14865,220.77385 186.03927,218.4301 191.57057,213.7426 C 197.1955,209.14886 200.47675,203.10199 201.41432,195.60197 L 192.8362,195.60197 C 191.99239,200.94574 189.60176,205.21136 185.66432,208.39885 C 181.82052,211.49261 177.13303,213.03948 171.60182,213.03947 C 164.47679,213.03948 158.75804,210.36761 154.44557,205.02385 C 150.0393,199.58637 147.83618,192.18013 147.8362,182.8051 L 147.8362,182.8051 z"
       style="font-size:144px;font-style:normal;font-variant:normal;font-weight:normal;font-stretch:normal;text-align:start;line-height:125%;writing-mode:lr-tb;text-anchor:start;fill:#000000;fill-opacity:1;stroke:none;stroke-width:1px;stroke-linecap:butt;stroke-linejoin:miter;stroke-opacity:1;font-family:Dotum;-inkscape-font-specification:Dotum" />
    <path
       id="text3167"
       d="M 223.94653,207.64722 L 232.52466,207.64722 L 232.52466,104.00659 L 223.94653,104.00659 L 223.94653,207.64722 z"
       style="font-size:144px;font-style:normal;font-variant:normal;font-weight:normal;font-stretch:normal;text-align:start;line-height:125%;writing-mode:lr-tb;text-anchor:start;fill:#000000;fill-opacity:1;stroke:none;stroke-width:1px;stroke-linecap:butt;stroke-linejoin:miter;stroke-opacity:1;font-family:Dotum;-inkscape-font-specification:Dotum" />
    <path
       id="text3171"
       d="M 405.36266,134.6662 C 403.9897,150.79666 398.2411,163.40926 388.11684,172.50404 C 377.9923,181.77046 364.5217,186.40366 347.705,186.40365 C 327.4561,186.40366 311.4973,179.02486 299.82856,164.26723 C 288.1597,149.16646 282.3253,128.14546 282.32534,101.20417 C 282.3253,74.434667 288.0739,53.756868 299.57116,39.170711 C 311.0683,24.928069 327.0271,17.80667 347.4476,17.806491 C 363.2347,17.80667 376.1047,21.75347 386.05764,29.646902 C 396.0103,37.540669 401.8447,48.437268 403.56086,62.336733 L 420.80667,62.336733 C 419.6053,44.147268 412.4839,29.561269 399.44245,18.578692 C 386.2291,7.5964702 368.8975,2.1052705 347.4476,2.1050762 C 321.8791,2.1052705 301.7161,10.77107 286.95855,28.102501 C 271.85771,45.777468 264.30731,70.230467 264.30732,101.46157 C 264.30731,132.86446 271.77191,157.48906 286.70115,175.33544 C 301.2871,193.18186 321.3643,202.10506 346.9328,202.10507 C 369.2407,202.10506 387.0013,196.09906 400.21465,184.08705 C 413.4277,172.07506 420.8065,155.60146 422.35107,134.6662 L 405.36266,134.6662 z"
       style="font-size:263.57785034px;font-style:normal;font-variant:normal;font-weight:normal;font-stretch:normal;text-align:start;line-height:125%;writing-mode:lr-tb;text-anchor:start;fill:#000000;fill-opacity:1;stroke:#000000;stroke-width:10;stroke-linecap:butt;stroke-linejoin:miter;stroke-miterlimit:4;stroke-opacity:1;font-family:Dotum;-inkscape-font-specification:Dotum" />
    <path
       id="text3175"
       d="M 466.88318,240.88641 L 466.88318,242.01141 C 466.88312,245.38642 467.77374,247.96454 469.55505,249.74579 C 471.33624,251.52704 474.00811,252.41766 477.57068,252.41766 C 478.32061,252.41766 479.11748,252.37079 479.9613,252.27704 C 481.17998,252.08954 482.4456,251.90204 483.75818,251.71454 L 483.75818,245.24579 L 480.66443,245.24579 C 478.22686,245.24579 476.63311,244.6833 475.88318,243.55829 C 475.41436,242.8083 475.17998,241.1208 475.18005,238.49579 L 475.18005,197.71454 C 475.17998,190.2146 472.83624,184.54273 468.1488,180.69891 C 463.555,176.94899 456.805,175.07399 447.8988,175.07391 C 438.80502,175.07399 431.58628,177.27711 426.24255,181.68329 C 420.99254,185.99585 418.32067,191.85522 418.22693,199.26141 L 426.80505,199.26141 C 426.99253,193.73022 428.86753,189.55835 432.43005,186.74579 C 435.99252,184.02711 441.14877,182.66773 447.8988,182.66766 C 454.55501,182.66773 459.33625,183.98023 462.24255,186.60516 C 465.05499,189.04273 466.46124,193.16772 466.4613,198.98016 C 466.46124,202.44896 465.19562,204.88646 462.66443,206.29266 C 460.78937,207.41771 457.69563,208.16771 453.38318,208.54266 L 449.44568,208.82391 C 444.00814,209.19896 439.97689,209.62083 437.35193,210.08954 C 433.13315,210.74583 429.52378,211.82395 426.5238,213.32391 C 422.49254,215.01145 419.49254,217.44895 417.5238,220.63641 C 415.46129,223.82394 414.43005,227.62081 414.43005,232.02704 C 414.43005,238.4958 416.63317,243.69892 421.03943,247.63641 C 425.53941,251.66766 431.58628,253.68329 439.18005,253.68329 C 444.43002,253.68329 449.35189,252.60516 453.94568,250.44891 C 458.53938,248.29267 462.85187,245.10517 466.88318,240.88641 L 466.88318,240.88641 z M 466.4613,212.33954 L 466.4613,222.88641 C 466.46124,229.91769 464.02375,235.54268 459.1488,239.76141 C 454.36751,243.88642 448.08626,245.94892 440.30505,245.94891 C 435.05502,245.94892 430.88315,244.63642 427.78943,242.01141 C 424.78941,239.38643 423.28941,235.96455 423.28943,231.74579 C 423.28941,227.71456 424.69566,224.38644 427.50818,221.76141 C 430.6019,218.8552 434.96127,217.07395 440.5863,216.41766 L 449.30505,215.29266 C 453.71126,214.9177 456.85188,214.5427 458.72693,214.16766 C 461.82062,213.69895 464.39875,213.08958 466.4613,212.33954 L 466.4613,212.33954 z"
       style="font-size:144px;font-style:normal;font-variant:normal;font-weight:normal;font-stretch:normal;text-align:start;line-height:125%;writing-mode:lr-tb;text-anchor:start;fill:#000000;fill-opacity:1;stroke:none;stroke-width:1px;stroke-linecap:butt;stroke-linejoin:miter;stroke-opacity:1;font-family:Dotum;-inkscape-font-specification:Dotum" />
    <path
       id="text3179"
       d="M 556.41473,345.57504 C 556.32097,337.88759 558.66471,331.41885 563.44598,326.16879 C 567.66471,321.57511 573.05532,319.27824 579.61786,319.27817 C 586.08656,319.27824 591.33656,321.57511 595.36786,326.16879 C 599.8678,331.41885 602.1178,337.88759 602.11786,345.57504 L 556.41473,345.57504 z M 556.41473,352.46567 L 611.11786,352.46567 L 611.11786,349.65317 C 611.11779,337.65322 608.30529,328.27823 602.68036,321.52817 C 597.0553,314.96574 589.46156,311.68449 579.89911,311.68442 C 569.77408,311.68449 561.85221,315.10637 556.13348,321.95004 C 550.32097,328.98135 547.41473,338.77822 547.41473,351.34067 C 547.41473,363.62194 550.2741,373.23131 555.99286,380.16879 C 561.71159,387.01254 569.5397,390.43442 579.47723,390.43442 C 587.72718,390.43442 594.6178,388.09067 600.14911,383.40317 C 605.77404,378.80943 609.05529,372.76256 609.99286,365.26254 L 601.41473,365.26254 C 600.57092,370.60631 598.1803,374.87193 594.24286,378.05942 C 590.39906,381.15317 585.71156,382.70005 580.18036,382.70004 C 573.05532,382.70005 567.33658,380.02818 563.02411,374.68442 C 558.61784,369.24694 556.41472,361.84069 556.41473,352.46567 L 556.41473,352.46567 z"
       style="font-size:144px;font-style:normal;font-variant:normal;font-weight:normal;font-stretch:normal;text-align:start;line-height:125%;writing-mode:lr-tb;text-anchor:start;fill:#000000;fill-opacity:1;stroke:none;stroke-width:1px;stroke-linecap:butt;stroke-linejoin:miter;stroke-opacity:1;font-family:Dotum;-inkscape-font-specification:Dotum" />
    <path
       id="text3183"
       d="M 496.97305,290.13226 C 497.16054,297.81978 499.83242,303.9604 504.98868,308.55414 C 510.23866,313.24164 517.22302,315.58539 525.9418,315.58539 C 534.56676,315.58539 541.50425,313.52289 546.7543,309.39789 C 551.91049,305.36665 554.48861,300.25728 554.48868,294.06976 C 554.48861,288.06979 552.66049,283.47604 549.0043,280.28851 C 545.62925,277.3823 539.86363,274.9448 531.70743,272.97601 L 528.33243,272.13226 C 520.36365,270.25731 515.2074,268.66356 512.86368,267.35101 C 509.30116,265.19481 507.51991,261.81981 507.51993,257.22601 C 507.51991,253.38232 508.92616,250.33545 511.73868,248.08539 C 514.8324,245.64796 518.9574,244.42921 524.11368,244.42914 C 529.92614,244.42921 534.56676,245.83546 538.03555,248.64789 C 541.4105,251.5542 543.2855,255.53857 543.66055,260.60101 L 552.51993,260.60101 C 551.95736,253.10107 549.19174,247.28858 544.22305,243.16351 C 539.25425,238.94484 532.59801,236.83546 524.2543,236.83539 C 516.56677,236.83546 510.33241,238.85109 505.55118,242.88226 C 500.86367,246.91358 498.51992,252.1167 498.51993,258.49164 C 498.51992,264.49169 500.76992,269.08543 505.26993,272.27289 C 508.92616,274.89793 515.67615,277.42917 525.51993,279.86664 L 525.9418,279.86664 C 533.53551,281.74167 538.4105,283.33542 540.5668,284.64789 C 543.94175,286.61666 545.62925,289.71041 545.6293,293.92914 C 545.62925,298.05415 543.89487,301.38228 540.42618,303.91351 C 536.76988,306.53852 531.84801,307.85102 525.66055,307.85101 C 519.84802,307.85102 515.11365,306.16352 511.45743,302.78851 C 507.70741,299.50728 505.83241,295.28853 505.83243,290.13226 L 496.97305,290.13226 z"
       style="font-size:144px;font-style:normal;font-variant:normal;font-weight:normal;font-stretch:normal;text-align:start;line-height:125%;writing-mode:lr-tb;text-anchor:start;fill:#000000;fill-opacity:1;stroke:none;stroke-width:1px;stroke-linecap:butt;stroke-linejoin:miter;stroke-opacity:1;font-family:Dotum;-inkscape-font-specification:Dotum" />
    <path
       transform="matrix(2.530012,-0.4377171,0.4377171,2.530012,-1533.4455,102.40959)"
       d="M 961.45294,201.00758 A 16.714602,9.0840225 0 1 1 928.02374,201.00758 A 16.714602,9.0840225 0 1 1 961.45294,201.00758 z"
       sodipodi:ry="9.0840225"
       sodipodi:rx="16.714602"
       sodipodi:cy="201.00758"
       sodipodi:cx="944.73834"
       id="path3176"
       style="opacity:1;fill:#803300;fill-opacity:1;fill-rule:evenodd;stroke:#2b1100;stroke-width:1.55787659;stroke-linecap:round;stroke-linejoin:miter;stroke-miterlimit:4;stroke-dasharray:none;stroke-dashoffset:0;stroke-opacity:1"
       sodipodi:type="arc" />
    <path
       transform="matrix(0.9853616,-0.1704773,0.1704773,0.9853616,-18.984331,160.36522)"
       d="M 961.45294,201.00758 A 16.714602,9.0840225 0 1 1 928.02374,201.00758 A 16.714602,9.0840225 0 1 1 961.45294,201.00758 z"
       sodipodi:ry="9.0840225"
       sodipodi:rx="16.714602"
       sodipodi:cy="201.00758"
       sodipodi:cx="944.73834"
       id="path3174"
       style="opacity:1;fill:#000000;fill-opacity:1;fill-rule:evenodd;stroke:#000000;stroke-width:4;stroke-linecap:round;stroke-linejoin:miter;stroke-miterlimit:4;stroke-dasharray:none;stroke-dashoffset:0;stroke-opacity:1"
       sodipodi:type="arc" />
  </g>
</svg>
